<svg width="120" height="120" viewBox="0 0 120 120" fill="none" xmlns="http://www.w3.org/2000/svg">
<path d="M59.9795 68.9747C65.8945 68.9747 70.6895 64.1797 70.6895 58.2647C70.6895 52.3497 65.8945 47.5547 59.9795 47.5547C54.0646 47.5547 49.2695 52.3497 49.2695 58.2647C49.2695 64.1797 54.0646 68.9747 59.9795 68.9747Z" fill="#00D8FF"/>
<path d="M59.9789 39.0457C73.8189 39.0457 86.9661 40.997 96.9612 44.4379C108.062 48.2594 114.833 53.9094 114.833 58.2628C114.833 62.9 107.52 68.9202 95.6466 72.8543C86.1937 75.9863 73.5462 77.6934 59.9789 77.6934C45.726 77.6934 32.9359 76.0196 23.5927 72.8259C17.7433 70.8266 12.9128 68.2283 9.60186 65.3929C6.62664 62.845 5.12455 60.3153 5.12455 58.2628C5.12455 53.8948 11.6367 48.3232 22.498 44.5365C32.4973 41.0505 45.9663 39.0457 59.9789 39.0457ZM59.9789 33.9212C45.4219 33.9212 31.3887 36.0099 20.811 39.6976C8.11073 44.1255 0 51.0647 0 58.2628C0 65.6971 8.70701 73.1536 21.9352 77.675C31.8784 81.0737 45.2062 82.8179 59.9789 82.8179C74.0578 82.8179 87.2373 81.039 97.2583 77.7188C111.01 73.1624 119.958 65.7965 119.958 58.2628C119.958 51.0387 111.585 44.0526 98.6293 39.5924C88.0643 35.9553 74.3586 33.9212 59.9789 33.9212ZM43.2391 48.7159C50.1531 36.7269 58.4115 26.3126 66.3856 19.373C75.2417 11.6659 83.5188 8.62278 87.29 10.7975C91.3071 13.1141 92.8691 22.4566 90.3452 34.7077C88.3359 44.4612 83.4964 56.2702 76.7186 68.0232C69.5983 80.3701 61.7588 90.6134 54.3244 97.1118C49.6703 101.18 45.0064 104.067 40.896 105.518C37.2025 106.823 34.2607 106.86 32.4826 105.835C28.6987 103.653 27.1256 95.2281 29.2713 83.9275C31.2466 73.5242 36.2386 60.8551 43.2391 48.7159ZM38.7999 46.1558C31.5274 58.7666 26.3263 71.9664 24.2367 82.9716C21.7277 96.1854 23.687 106.678 29.9225 110.274C36.3629 113.988 47.172 110.171 57.6971 100.97C65.6088 94.0545 73.7779 83.3804 81.1578 70.5832C88.1912 58.3871 93.2343 46.0814 95.3644 35.7417C98.2875 21.5527 96.3763 10.1217 89.85 6.35822C83.592 2.7494 73.3577 6.51215 63.0214 15.5073C54.5927 22.8426 45.9835 33.6993 38.7999 46.1558ZM43.2551 68.0511C36.3212 56.0735 31.4229 43.7177 29.3931 33.3435C27.1387 21.822 28.636 13.131 32.4036 10.95C36.4169 8.62659 45.2911 11.9392 54.6443 20.2442C62.0909 26.856 69.9047 36.9461 76.7024 48.688C83.8433 61.0229 88.8028 72.9305 90.7201 82.6168C91.9204 88.6808 92.0919 94.163 91.2968 98.449C90.5823 102.3 89.1456 104.868 87.3691 105.896C83.5888 108.085 75.5043 105.24 66.7856 97.7375C58.7592 90.8306 50.2761 80.1785 43.2551 68.0511ZM38.8202 70.6186C46.1138 83.2171 54.9522 94.3153 63.443 101.622C73.6379 110.395 83.707 113.937 89.9366 110.331C96.3707 106.606 98.4617 95.3353 95.7471 81.6218C93.7067 71.3135 88.5387 58.9052 81.1373 46.1205C74.0834 33.9359 65.9409 23.4213 58.0468 16.4122C47.2141 6.79352 36.3561 2.7404 29.8362 6.51499C23.5841 10.1343 21.7328 20.8803 24.3639 34.3275C26.5094 45.2932 31.6158 58.174 38.8202 70.6186Z" fill="#00D8FF"/>
</svg>
