<svg width="120" height="120" viewBox="0 0 120 120" fill="none" xmlns="http://www.w3.org/2000/svg">
<path d="M81.7005 80.8352C85.8521 80.4126 89.0018 76.894 88.8585 72.6711C88.7156 68.449 85.1362 65.071 80.8414 65.071H80.5553C76.1167 65.2116 72.6814 68.8712 72.8246 73.2344C72.9679 75.3456 73.8266 77.1752 75.1151 78.442C70.2476 87.8725 62.8031 94.7691 51.6367 100.54C44.049 104.481 36.1755 105.889 28.3018 104.903C21.8594 104.059 16.8488 101.244 13.6988 96.5987C9.1179 89.7021 8.68856 82.2422 12.554 74.7827C15.2742 69.4341 19.5685 65.4929 22.2888 63.5222C21.7162 61.6926 20.857 58.5962 20.4277 56.3444C-0.33077 71.1231 1.81684 91.1099 8.11597 100.54C12.8401 107.578 22.432 111.941 33.0259 111.941C35.889 111.941 38.7521 111.659 41.6156 110.956C59.9404 107.437 73.827 96.7397 81.7005 80.8352ZM106.897 63.382C96.0169 50.8551 79.9826 43.9585 61.6579 43.9585H59.3677C58.0792 41.425 55.359 39.7356 52.3526 39.7356H52.0661C47.6284 39.8766 44.193 43.5359 44.3359 47.8994C44.4791 52.1219 48.0577 55.4999 52.3526 55.4999H52.6387C55.7884 55.3592 58.5086 53.3886 59.6539 50.7141H62.2305C73.1111 50.7141 83.4184 53.8105 92.7244 59.863C99.882 64.5077 105.036 70.5602 107.899 77.8791C110.333 83.7906 110.19 89.5615 107.613 94.4879C103.604 101.947 96.876 106.029 87.9997 106.029C82.2731 106.029 76.8334 104.34 73.9699 103.073C72.3952 104.481 69.5317 106.733 67.5274 108.141C73.6837 110.956 79.9826 112.504 85.9954 112.504C99.7388 112.504 109.904 105.044 113.769 97.5842C117.92 89.4205 117.634 75.3456 106.897 63.382ZM34.1711 83.2273C34.3144 87.4499 37.8934 90.8275 42.1882 90.8275H42.4747C46.9125 90.6872 50.3482 87.0276 50.205 82.6645C50.0621 78.4416 46.4827 75.064 42.1882 75.064H41.9021C41.6156 75.064 41.1859 75.064 40.9001 75.2042C35.0302 65.6335 32.5966 55.2182 33.4557 43.9581C34.0279 35.513 36.8913 28.1938 41.9021 22.1414C46.0534 16.9335 54.0705 14.4001 59.511 14.2597C74.6857 13.978 81.1275 32.5569 81.5573 40.0169C83.4184 40.4391 86.568 41.4246 88.7156 42.1285C86.9974 19.3271 72.6814 7.50391 58.9384 7.50391C46.0534 7.50391 34.1711 16.6527 29.4466 30.1647C22.8614 48.1806 27.1561 65.4929 35.1731 79.1459C34.4577 80.131 34.0279 81.679 34.1711 83.2273Z" fill="#764ABC"/>
</svg>
