<svg width="120" height="120" viewBox="0 0 120 120" fill="none" xmlns="http://www.w3.org/2000/svg">
<path d="M60.6408 70.1249C58.837 70.9537 56.8608 72.0337 52.9045 74.2049C51.4045 75.0487 49.837 75.8924 48.3783 76.6874C48.277 76.5862 48.172 76.4587 48.0708 76.3537C40.2445 67.9912 25.7695 62.0849 26.3845 50.8537C26.6133 46.7624 28.0195 36.0224 54.1833 22.9799C75.7158 12.3674 92.8495 15.3074 95.8083 21.8287C100.061 31.1249 86.6245 48.4237 64.387 50.9324C61.9258 51.4316 59.384 51.3713 56.9492 50.756C54.5145 50.1407 52.2492 48.986 50.3208 47.3774C49.1433 46.0987 48.967 46.0237 48.532 46.2787C47.8158 46.6537 48.277 47.8124 48.532 48.4762C49.3803 50.012 50.5278 51.3621 51.9068 52.4468C53.2859 53.5314 54.8684 54.3286 56.5608 54.7912C65.3118 56.6826 74.4358 55.7789 82.6458 52.2074C96.1233 46.9912 106.646 32.4899 103.563 20.3324C100.47 8.00615 80.0095 3.94115 60.652 10.8187C48.5293 14.9039 37.329 21.3348 27.6895 29.7449C17.0245 39.7199 15.337 48.3899 16.027 52.0199C18.5095 64.9087 36.277 73.2974 43.402 79.5112C43.027 79.7174 42.712 79.8862 42.4308 80.0474C38.8758 81.8137 25.3233 88.8974 21.9445 96.3899C18.1083 104.88 22.5595 110.966 25.4995 111.784C29.9301 112.845 34.5815 112.496 38.8042 110.786C43.0269 109.075 46.61 106.089 49.0533 102.244C51.128 99.0549 52.4021 95.4123 52.767 91.6256C53.132 87.8388 52.5771 84.0199 51.1495 80.4937C51.9918 79.8218 52.8901 79.2234 53.8345 78.7049C55.6495 77.6324 57.3783 76.5749 58.912 75.7574C64.1634 73.2976 69.8943 72.0311 75.6933 72.0487C87.8658 73.4812 90.2695 81.0749 89.8083 84.2737C89.5925 85.4085 89.1361 86.4841 88.4699 87.4278C87.8036 88.3716 86.9429 89.1616 85.9458 89.7449C85.102 90.2812 84.8208 90.4612 84.8958 90.8437C84.997 91.4062 85.4058 91.3799 86.122 91.2787C87.9508 90.7007 89.5621 89.583 90.744 88.0724C91.926 86.5618 92.6233 84.7291 92.7445 82.8149C93.1195 75.3149 85.9683 67.0874 73.3083 67.1624C69.5175 67.1689 65.7645 67.9167 62.2608 69.3637C61.6983 69.5962 61.152 69.8462 60.622 70.1137L60.6408 70.1249ZM42.547 99.5211C38.5045 103.92 32.8795 105.581 30.4495 104.175C27.8245 102.675 28.8633 96.1687 33.8245 91.5149C36.7629 88.8674 39.9388 86.4962 43.312 84.4312C43.9008 84.0562 44.7708 83.5611 45.817 82.9312C45.997 82.8299 46.0983 82.7774 46.0983 82.7774L46.7133 82.4024C47.5981 85.369 47.6786 88.5175 46.9465 91.5255C46.2145 94.5335 44.6961 97.2929 42.547 99.5211Z" fill="#CD6799"/>
</svg>
